<svg width="845.127" height="1000" xmlns="http://www.w3.org/2000/svg"><g class="layer" fill="#32de84"><path d="M61.855 324.62C27.409 324.62 0 352.027 0 386.473v257.65c0 34.445 27.409 61.854 61.855 61.854s61.854-27.409 61.854-61.855V386.474c0-34.446-27.408-61.855-61.854-61.855zm721.417 0c-34.446 0-61.854 27.408-61.854 61.854v257.65c0 34.445 27.409 61.854 61.854 61.854 34.446 0 61.855-27.409 61.855-61.855V386.474c0-34.446-27.409-61.855-61.855-61.855zm-463.77 294.022c-34.446 0-61.855 27.409-61.855 61.854v257.65c0 34.445 27.41 61.854 61.855 61.854 34.446 0 61.855-27.409 61.855-61.854v-257.65c0-34.445-27.41-61.854-61.855-61.854zm206.12 0c-34.447 0-61.856 27.409-61.856 61.854v257.65c0 34.445 27.41 61.854 61.855 61.854 34.446 0 61.855-27.409 61.855-61.854v-257.65c0-34.445-27.409-61.854-61.855-61.854z"></path><path d="M247.133 1.137zM146.725 335.228v399.83c0 36.944 29.741 66.686 66.685 66.686h418.303c36.944 0 66.685-29.742 66.685-66.685v-399.83H146.725zM556.722 97.554l45.712-79.186c2.58-4.44 1.02-10.078-3.36-12.658-4.379-2.579-10.078-1.079-12.597 3.36l-46.312 80.206C504.83 73.138 465.058 64.14 422.285 64.14c-42.772 0-82.545 8.998-117.879 25.136L258.094 9.07a9.235 9.235 0 00-12.657-3.36 9.235 9.235 0 00-3.36 12.658l45.712 79.186c-78.826 42.713-132.217 122.498-141.035 215.902h551.063c-8.819-93.404-62.21-173.19-141.095-215.902zM295.768 236.07c-12.778 0-23.096-10.378-23.096-23.096 0-12.778 10.378-23.096 23.096-23.096 12.778 0 23.096 10.378 23.096 23.096.062 12.718-10.318 23.096-23.096 23.096zm252.975 0c-12.777 0-23.096-10.378-23.096-23.096 0-12.778 10.379-23.096 23.096-23.096 12.778 0 23.096 10.378 23.096 23.096.063 12.718-10.318 23.096-23.096 23.096z"></path></g></svg>